<svg width="81" height="85" viewBox="0 0 81 85" xmlns="http://www.w3.org/2000/svg">
<defs>
  <linearGradient x1="100%" y1="0%" x2="0%" y2="100%" id="a">
    <stop stop-color="#FF5770" offset="0%"/>
    <stop stop-color="#6501DE" offset="100%"/>
  </linearGradient>
</defs>
<g fill="none" fill-rule="evenodd">
  <path d="M0,2.09610107e-13 L0,73.4164991 L-8.52651283e-14,85 L80.810027,85 C76.4929205,68.1692933 67.1024481,53.446066 54.4151299,42.6507622 C67.1781567,31.79104 76.6048739,16.9563766 80.8867649,2.11386464e-13 L1.42108547e-14,2.13162821e-13 Z" fill="url(#a)"/>
  <path d="M71.0267471,6 C62.9616492,32.6375314 38.6880523,51.986563 9.99643764,51.986563 C8.65422082,51.986563 7.32167258,51.9442187 6,51.8607649 L6,6 L71.0267471,6 Z" fill="#fff"/>
  <path d="M71.0267471,33.013437 C62.9616492,59.6509684 38.6880523,79 9.99643764,79 C8.65422082,79 7.32167258,78.9576557 6,78.8742019 L6,33.013437 L71.0267471,33.013437 Z" fill="#fff" transform="matrix(1 0 0 -1 0 112.013)"/>
</g>
</svg>
